<?xml version="1.0" encoding="iso-8859-1"?>
<!-- Generator: Adobe Illustrator 19.0.0, SVG Export Plug-In . SVG Version: 6.00 Build 0)  -->
<svg version="1.1" id="Layer_1" xmlns="http://www.w3.org/2000/svg" xmlns:xlink="http://www.w3.org/1999/xlink" x="0px" y="0px"
	 viewBox="0 0 512 512" style="enable-background:new 0 0 512 512;" xml:space="preserve">
<rect y="36.049" style="fill:#FFB74D;" width="450.351" height="393.404"/>
<rect y="36.049" style="fill:#67BFFF;" width="450.351" height="92.473"/>
<path style="fill:#FFFFFF;" d="M58.274,189.597v179.963H225.05l166.787,0.01V189.597H58.274z M133.914,338.213H89.621v-42.956
	h44.293V338.213z M133.914,263.91H89.621v-42.966h44.293V263.91z M209.387,338.213h-44.126v-42.956h44.126V338.213z M209.387,263.91
	h-44.126v-42.966h44.126V263.91z M284.85,338.213h-44.116v-42.956h44.116V338.213z M284.85,263.91h-44.116v-42.966h44.116V263.91z
	 M360.49,338.213h-44.293v-42.956h44.293V338.213z M360.49,263.91h-44.293v-42.966h44.293V263.91z"/>
<rect x="225.05" y="36.049" style="fill:#FFA91E;" width="225.301" height="393.404"/>
<path style="fill:#D9D8DB;" d="M225.05,189.597v179.963l166.787,0.01V189.597H225.05z M284.85,338.213h-44.116v-42.956h44.116
	V338.213z M284.85,263.91h-44.116v-42.966h44.116V263.91z M360.49,338.213h-44.293v-42.956h44.293V338.213z M360.49,263.91h-44.293
	v-42.966h44.293V263.91z"/>
<g>
	<rect x="225.05" y="36.049" style="fill:#0088FF;" width="225.301" height="92.473"/>
	<rect x="312.675" style="fill:#0088FF;" width="31.347" height="85.682"/>
</g>
<g>
	<rect x="106.83" style="fill:#67BFFF;" width="31.347" height="85.682"/>
	<path style="fill:#67BFFF;" d="M512,406.601C512,464.812,464.812,512,406.601,512c-0.251,0-0.502,0-0.752-0.01
		c-28.473-0.188-54.251-11.682-73.101-30.208c-16.927-16.635-28.264-38.933-30.929-63.843c-0.397-3.72-0.616-7.502-0.616-11.337
		c0-31.587,13.908-59.925,35.913-79.245c0.24-0.209,0.481-0.418,0.721-0.616c8.579-7.398,18.369-13.427,29.017-17.774
		c12.048-4.901,25.203-7.659,38.996-7.743c0.251-0.01,0.502-0.01,0.752-0.01C464.812,301.213,512,348.39,512,406.601z"/>
</g>
<path style="fill:#0088FF;" d="M512,406.601C512,464.812,464.812,512,406.601,512c-0.251,0-0.502,0-0.752-0.01V301.223
	c0.251-0.01,0.502-0.01,0.752-0.01C464.812,301.213,512,348.39,512,406.601z"/>
<polygon style="fill:#FFFFFF;" points="462.064,391.952 462.064,423.299 422.275,423.299 422.275,465.157 390.928,465.157 
	390.928,423.299 351.138,423.299 351.138,391.952 390.928,391.952 390.928,350.103 422.275,350.103 422.275,391.952 "/>
<polygon style="fill:#D9D8DB;" points="462.064,391.952 462.064,423.299 422.275,423.299 422.275,465.157 405.849,465.157 
	405.849,350.103 422.275,350.103 422.275,391.952 "/>
<g>
</g>
<g>
</g>
<g>
</g>
<g>
</g>
<g>
</g>
<g>
</g>
<g>
</g>
<g>
</g>
<g>
</g>
<g>
</g>
<g>
</g>
<g>
</g>
<g>
</g>
<g>
</g>
<g>
</g>
</svg>
